<svg id="Capa_1" enable-background="new 0 0 512 512" height="512" viewBox="0 0 512 512" width="512" xmlns="http://www.w3.org/2000/svg"><g><circle cx="395.033" cy="332.587" fill="#ffd064" r="111.978"/><path d="m425.887 440.258c-9.797 2.805-20.15 4.311-30.854 4.311-61.842 0-111.98-50.138-111.98-111.98s50.138-111.98 111.98-111.98c10.704 0 21.057 1.506 30.854 4.311-46.848 13.396-81.136 56.531-81.136 107.67-.001 51.137 34.287 94.273 81.136 107.668z" fill="#ffc250"/><g><path d="" fill="#95d6a4"/><path d="m362.703 45.58c-1.64 4.857-4.011 9.755-6.538 14.262-.402.732-.815 1.454-1.227 2.155-7.528 12.849-10.776 27.781-9.549 42.62 8.518 102.895 8.569 205.79.145 308.675-1.299 15.85-13.674 28.575-29.493 30.215-87.375 9.106-174.75 9.106-262.136 0-15.809-1.64-28.183-14.365-29.483-30.215-8.425-102.885-8.373-205.78.145-308.675 1.227-14.839-2.021-29.771-9.559-42.62-.413-.701-.825-1.423-1.227-2.155-2.527-4.496-4.888-9.405-6.528-14.252-3.073-9.105-3.61-18.015 2.165-23.79 16.252-16.242 121.931-21.8 175.555-21.8 53.634 0 159.313 5.558 175.555 21.8 5.764 5.765 5.248 14.685 2.175 23.78z" fill="#986b54"/></g><g><path d="m75.186 426.898c.371 7.157 2.093 13.726 4.785 19.057-8.693-.722-17.376-1.537-26.069-2.444-15.808-1.64-28.183-14.365-29.482-30.215-8.425-102.885-8.374-205.78.144-308.675 1.227-14.85-2.021-29.771-9.549-42.62-7.776-13.261-14.932-30.854-5.589-40.197 6.693-6.693 28.554-11.57 55.706-14.994-.062.093-.134.196-.196.299-6.394 10.024-1.495 28.874 3.816 43.095 5.156 13.787 7.373 29.792 6.538 45.714-5.827 110.32-5.858 220.65-.104 330.98z" fill="#845c47"/></g><path d="m313.867 225.168c0 65.524-57.707 118.642-128.892 118.642-46.188 0-86.705-22.377-109.454-55.985-1.609-2.372-3.135-4.806-4.558-7.301-9.508-16.52-14.881-35.371-14.881-55.356 0-20.944 5.899-40.62 16.252-57.697 1.031-1.712 2.114-3.403 3.238-5.063 22.759-33.566 63.255-55.882 109.402-55.882 71.186 0 128.893 53.108 128.893 118.642z" fill="#ededed"/><g><path d="m70.963 280.524c-9.508-16.52-14.881-35.371-14.881-55.356 0-20.944 5.899-40.62 16.252-57.697-1.144 37.681-1.598 75.372-1.371 113.053z" fill="#dbdbdb"/></g><path d="m362.703 45.58c-1.64 4.857-4.011 9.755-6.538 14.262-.495-.247-.98-.557-1.423-.938-3.217-2.691-16.52-9.508-70.35-14.623-35.783-3.403-74.815-4.62-99.42-4.62-70.876 0-156.013 7.734-169.759 19.243-.454.382-.928.691-1.433.938-2.527-4.496-4.888-9.405-6.528-14.252 31.627-21.15 176.225-21.398 177.72-21.398s146.093.248 177.731 21.388z" fill="#845c47"/><g fill="#407093"><path d="m249.72 183.765c-11.997 0-21.757 9.76-21.757 21.756s9.76 21.756 21.757 21.756c11.996 0 21.756-9.76 21.756-21.756s-9.76-21.756-21.756-21.756z"/><path d="m212.76 189.471c11.996 0 21.756-9.759 21.756-21.756 0-11.996-9.759-21.756-21.756-21.756-11.996 0-21.756 9.76-21.756 21.756-.001 11.997 9.759 21.756 21.756 21.756z"/><circle cx="120.23" cy="205.521" r="21.756"/><path d="m157.19 189.471c11.996 0 21.756-9.759 21.756-21.756 0-11.996-9.76-21.756-21.756-21.756s-21.756 9.76-21.756 21.756c0 11.997 9.759 21.756 21.756 21.756z"/><path d="m231.735 235.718c-4.55-3.854-7.55-8.693-8.676-13.992-1.818-8.555-6.353-16.078-13.114-21.754-14.236-11.951-35.707-11.952-49.943 0-6.76 5.675-11.295 13.197-13.114 21.754-1.126 5.3-4.126 10.138-8.675 13.992-9.546 8.087-14.536 19.9-13.689 32.41 1.319 19.484 17.021 35.038 36.524 36.18.763.044 1.525.067 2.288.067 5.665 0 11.288-1.226 16.389-3.589 3.286-1.522 7.211-1.522 10.497 0 5.788 2.681 12.245 3.896 18.677 3.523 19.502-1.142 35.204-16.696 36.523-36.18.848-12.512-4.141-24.325-13.687-32.411z"/></g><path d="m466.18 435.184c9.511-7.977 15.562-19.944 15.562-33.329 0-24.017-19.47-43.487-43.487-43.487s-43.487 19.47-43.487 43.487c0 1.256.07 2.495.175 3.724-37.802-.72-75.604-.72-113.406 0 .104-1.229.175-2.468.175-3.724 0-24.017-19.47-43.487-43.487-43.487s-43.487 19.47-43.487 43.487c0 13.385 6.052 25.352 15.562 33.329-9.511 7.977-15.562 19.944-15.562 33.329 0 24.017 19.47 43.487 43.487 43.487s43.487-19.47 43.487-43.487c0-1.256-.07-2.495-.175-3.724 37.802.72 75.604.72 113.406 0-.105 1.229-.175 2.468-.175 3.724 0 24.017 19.47 43.487 43.487 43.487s43.487-19.47 43.487-43.487c0-13.385-6.051-25.352-15.562-33.329z" fill="#ededed"/><g fill="#dbdbdb"><path d="m481.742 468.514c0 24.017-19.47 43.486-43.487 43.486s-43.486-19.469-43.486-43.486c0-1.258.072-2.495.175-3.723-37.804.722-75.609.722-113.403 0 .103 1.227.175 2.465.175 3.723 0 24.017-19.469 43.486-43.487 43.486-24.017 0-43.497-19.469-43.497-43.486 0-3.094.32-6.105.938-9.013 4.156 11.302 21.635 19.789 42.558 19.789 24.017 0 43.487-11.178 43.487-24.966 0-.722-.072-1.433-.175-2.145 37.794.423 75.599.423 113.403 0-.103.711-.175 1.423-.175 2.145 0 13.788 19.469 24.966 43.486 24.966 20.923 0 38.403-8.487 42.548-19.789.62 2.908.94 5.919.94 9.013z"/><g><path d="m434.553 411.221c-.79 0-1.591-.121-2.382-.377l-.422-.136c-4.064-1.314-6.294-5.675-4.979-9.739 1.314-4.064 5.675-6.294 9.738-4.979l.422.136c4.064 1.314 6.294 5.675 4.979 9.739-1.058 3.273-4.092 5.356-7.356 5.356z"/><path d="m455.12 407.535c-.789 0-1.591-.121-2.382-.377l-.422-.136c-4.064-1.314-6.294-5.675-4.979-9.739 1.315-4.065 5.681-6.293 9.738-4.979l.422.136c4.064 1.314 6.294 5.675 4.979 9.739-1.058 3.273-4.092 5.356-7.356 5.356z"/><path d="m441.002 391.284c-.79 0-1.591-.121-2.382-.377l-.422-.136c-4.064-1.314-6.294-5.675-4.979-9.739 1.314-4.064 5.675-6.294 9.738-4.979l.422.136c4.064 1.314 6.294 5.675 4.979 9.739-1.058 3.273-4.092 5.356-7.356 5.356z"/></g><g><path d="m235.973 477.886c-3.738 0-7.025-2.715-7.629-6.524-.669-4.219 2.208-8.181 6.427-8.85l.438-.069c4.21-.674 8.181 2.207 8.85 6.427.669 4.219-2.208 8.181-6.427 8.85l-.438.069c-.409.066-.818.097-1.221.097z"/><path d="m216.021 469.808c-3.734 0-7.02-2.71-7.628-6.515-.674-4.218 2.199-8.183 6.417-8.858l.438-.07c4.215-.675 8.183 2.199 8.857 6.417s-2.199 8.183-6.417 8.857l-.438.07c-.413.067-.823.099-1.229.099z"/></g></g></g></svg>